<svg xmlns="http://www.w3.org/2000/svg" version="1.1" xmlns:xlink="http://www.w3.org/1999/xlink" xmlns:svgjs="http://svgjs.dev/svgjs" width="1440" height="200" preserveAspectRatio="none" viewBox="0 0 1440 200">
    <g mask="url(&quot;#SvgjsMask1047&quot;)" fill="none">
        <path d="M 0,10 C 36,47.8 108,189.2 180,199 C 252,208.8 288,73.4 360,59 C 432,44.6 468,129.2 540,127 C 612,124.8 648,50.6 720,48 C 792,45.4 828,112.8 900,114 C 972,115.2 1008,40.8 1080,54 C 1152,67.2 1188,184.2 1260,180 C 1332,175.8 1404,62.4 1440,33L1440 200L0 200z" fill="rgba(206, 208, 206, 1)"></path>
        <path d="M 0,169 C 36,144.2 108,45 180,45 C 252,45 288,166 360,169 C 432,172 468,67.6 540,60 C 612,52.4 648,135.8 720,131 C 792,126.2 828,26.8 900,36 C 972,45.2 1008,180 1080,177 C 1152,174 1188,33.4 1260,21 C 1332,8.6 1404,96.2 1440,115L1440 200L0 200z" fill="#780116"></path>
    </g>
    <defs>
        <mask id="SvgjsMask1047">
            <rect width="1440" height="200" fill="#ffffff"></rect>
        </mask>
    </defs>
</svg>