<svg xmlns="http://www.w3.org/2000/svg" version="1.1" xmlns:xlink="http://www.w3.org/1999/xlink" xmlns:svgjs="http://svgjs.dev/svgjs" width="1440" height="300" preserveAspectRatio="none" viewBox="0 0 1440 300">
    <g mask="url(&quot;#SvgjsMask1109&quot;)" fill="none">
        <path d="M0 -40L34.64 -20L34.64 20L0 40L-34.64 20L-34.64 -20zM34.64 20L69.28 40L69.28 80L34.64 100L0 80L0 40zM0 80L34.64 100L34.64 140L0 160L-34.64 140L-34.64 100zM34.64 140L69.28 160L69.28 200L34.64 220L0 200L0 160zM0 200L34.64 220L34.64 260L0 280L-34.64 260L-34.64 220zM34.64 260L69.28 280L69.28 320L34.64 340L0 320L0 280zM69.28 -40L103.93 -20L103.93 20L69.28 40L34.64 20L34.64 -20zM103.93 20L138.57 40L138.57 80L103.93 100L69.28 80L69.28 40zM69.28 80L103.93 100L103.93 140L69.28 160L34.64 140L34.64 100zM103.93 140L138.57 160L138.57 200L103.93 220L69.28 200L69.28 160zM69.28 200L103.93 220L103.93 260L69.28 280L34.64 260L34.64 220zM103.93 260L138.57 280L138.57 320L103.93 340L69.28 320L69.28 280zM138.57 -40L173.21 -20L173.21 20L138.57 40L103.93 20L103.93 -20zM173.21 20L207.85 40L207.85 80L173.21 100L138.57 80L138.57 40zM138.57 80L173.21 100L173.21 140L138.57 160L103.93 140L103.93 100zM173.21 140L207.85 160L207.85 200L173.21 220L138.57 200L138.57 160zM138.57 200L173.21 220L173.21 260L138.57 280L103.93 260L103.93 220zM173.21 260L207.85 280L207.85 320L173.21 340L138.57 320L138.57 280zM207.85 -40L242.49 -20L242.49 20L207.85 40L173.21 20L173.21 -20zM242.49 20L277.14 40L277.14 80L242.49 100L207.85 80L207.85 40zM207.85 80L242.49 100L242.49 140L207.85 160L173.21 140L173.21 100zM242.49 140L277.14 160L277.14 200L242.49 220L207.85 200L207.85 160zM207.85 200L242.49 220L242.49 260L207.85 280L173.21 260L173.21 220zM242.49 260L277.14 280L277.14 320L242.49 340L207.85 320L207.85 280zM277.14 -40L311.78 -20L311.78 20L277.14 40L242.49 20L242.49 -20zM311.78 20L346.42 40L346.42 80L311.78 100L277.14 80L277.14 40zM277.14 80L311.78 100L311.78 140L277.14 160L242.49 140L242.49 100zM311.78 140L346.42 160L346.42 200L311.78 220L277.14 200L277.14 160zM277.14 200L311.78 220L311.78 260L277.14 280L242.49 260L242.49 220zM311.78 260L346.42 280L346.42 320L311.78 340L277.14 320L277.14 280zM346.42 -40L381.06 -20L381.06 20L346.42 40L311.78 20L311.78 -20zM381.06 20L415.7 40L415.7 80L381.06 100L346.42 80L346.42 40zM346.42 80L381.06 100L381.06 140L346.42 160L311.78 140L311.78 100zM381.06 140L415.7 160L415.7 200L381.06 220L346.42 200L346.42 160zM346.42 200L381.06 220L381.06 260L346.42 280L311.78 260L311.78 220zM381.06 260L415.7 280L415.7 320L381.06 340L346.42 320L346.42 280zM415.7 -40L450.35 -20L450.35 20L415.7 40L381.06 20L381.06 -20zM450.35 20L484.99 40L484.99 80L450.35 100L415.7 80L415.7 40zM415.7 80L450.35 100L450.35 140L415.7 160L381.06 140L381.06 100zM450.35 140L484.99 160L484.99 200L450.35 220L415.7 200L415.7 160zM415.7 200L450.35 220L450.35 260L415.7 280L381.06 260L381.06 220zM450.35 260L484.99 280L484.99 320L450.35 340L415.7 320L415.7 280zM484.99 -40L519.63 -20L519.63 20L484.99 40L450.35 20L450.35 -20zM519.63 20L554.27 40L554.27 80L519.63 100L484.99 80L484.99 40zM484.99 80L519.63 100L519.63 140L484.99 160L450.35 140L450.35 100zM519.63 140L554.27 160L554.27 200L519.63 220L484.99 200L484.99 160zM484.99 200L519.63 220L519.63 260L484.99 280L450.35 260L450.35 220zM519.63 260L554.27 280L554.27 320L519.63 340L484.99 320L484.99 280zM554.27 -40L588.91 -20L588.91 20L554.27 40L519.63 20L519.63 -20zM588.91 20L623.56 40L623.56 80L588.91 100L554.27 80L554.27 40zM554.27 80L588.91 100L588.91 140L554.27 160L519.63 140L519.63 100zM588.91 140L623.56 160L623.56 200L588.91 220L554.27 200L554.27 160zM554.27 200L588.91 220L588.91 260L554.27 280L519.63 260L519.63 220zM588.91 260L623.56 280L623.56 320L588.91 340L554.27 320L554.27 280zM623.56 -40L658.2 -20L658.2 20L623.56 40L588.91 20L588.91 -20zM658.2 20L692.84 40L692.84 80L658.2 100L623.56 80L623.56 40zM623.56 80L658.2 100L658.2 140L623.56 160L588.91 140L588.91 100zM658.2 140L692.84 160L692.84 200L658.2 220L623.56 200L623.56 160zM623.56 200L658.2 220L658.2 260L623.56 280L588.91 260L588.91 220zM658.2 260L692.84 280L692.84 320L658.2 340L623.56 320L623.56 280zM692.84 -40L727.48 -20L727.48 20L692.84 40L658.2 20L658.2 -20zM727.48 20L762.12 40L762.12 80L727.48 100L692.84 80L692.84 40zM692.84 80L727.48 100L727.48 140L692.84 160L658.2 140L658.2 100zM727.48 140L762.12 160L762.12 200L727.48 220L692.84 200L692.84 160zM692.84 200L727.48 220L727.48 260L692.84 280L658.2 260L658.2 220zM727.48 260L762.12 280L762.12 320L727.48 340L692.84 320L692.84 280zM762.12 -40L796.77 -20L796.77 20L762.12 40L727.48 20L727.48 -20zM796.77 20L831.41 40L831.41 80L796.77 100L762.12 80L762.12 40zM762.12 80L796.77 100L796.77 140L762.12 160L727.48 140L727.48 100zM796.77 140L831.41 160L831.41 200L796.77 220L762.12 200L762.12 160zM762.12 200L796.77 220L796.77 260L762.12 280L727.48 260L727.48 220zM796.77 260L831.41 280L831.41 320L796.77 340L762.12 320L762.12 280zM831.41 -40L866.05 -20L866.05 20L831.41 40L796.77 20L796.77 -20zM866.05 20L900.69 40L900.69 80L866.05 100L831.41 80L831.41 40zM831.41 80L866.05 100L866.05 140L831.41 160L796.77 140L796.77 100zM866.05 140L900.69 160L900.69 200L866.05 220L831.41 200L831.41 160zM831.41 200L866.05 220L866.05 260L831.41 280L796.77 260L796.77 220zM866.05 260L900.69 280L900.69 320L866.05 340L831.41 320L831.41 280zM900.69 -40L935.33 -20L935.33 20L900.69 40L866.05 20L866.05 -20zM935.33 20L969.98 40L969.98 80L935.33 100L900.69 80L900.69 40zM900.69 80L935.33 100L935.33 140L900.69 160L866.05 140L866.05 100zM935.33 140L969.98 160L969.98 200L935.33 220L900.69 200L900.69 160zM900.69 200L935.33 220L935.33 260L900.69 280L866.05 260L866.05 220zM935.33 260L969.98 280L969.98 320L935.33 340L900.69 320L900.69 280zM969.98 -40L1004.62 -20L1004.62 20L969.98 40L935.33 20L935.33 -20zM1004.62 20L1039.26 40L1039.26 80L1004.62 100L969.98 80L969.98 40zM969.98 80L1004.62 100L1004.62 140L969.98 160L935.33 140L935.33 100zM1004.62 140L1039.26 160L1039.26 200L1004.62 220L969.98 200L969.98 160zM969.98 200L1004.62 220L1004.62 260L969.98 280L935.33 260L935.33 220zM1004.62 260L1039.26 280L1039.26 320L1004.62 340L969.98 320L969.98 280zM1039.26 -40L1073.9 -20L1073.9 20L1039.26 40L1004.62 20L1004.62 -20zM1073.9 20L1108.54 40L1108.54 80L1073.9 100L1039.26 80L1039.26 40zM1039.26 80L1073.9 100L1073.9 140L1039.26 160L1004.62 140L1004.62 100zM1073.9 140L1108.54 160L1108.54 200L1073.9 220L1039.26 200L1039.26 160zM1039.26 200L1073.9 220L1073.9 260L1039.26 280L1004.62 260L1004.62 220zM1073.9 260L1108.54 280L1108.54 320L1073.9 340L1039.26 320L1039.26 280zM1108.54 -40L1143.19 -20L1143.19 20L1108.54 40L1073.9 20L1073.9 -20zM1143.19 20L1177.83 40L1177.83 80L1143.19 100L1108.54 80L1108.54 40zM1108.54 80L1143.19 100L1143.19 140L1108.54 160L1073.9 140L1073.9 100zM1143.19 140L1177.83 160L1177.83 200L1143.19 220L1108.54 200L1108.54 160zM1108.54 200L1143.19 220L1143.19 260L1108.54 280L1073.9 260L1073.9 220zM1143.19 260L1177.83 280L1177.83 320L1143.19 340L1108.54 320L1108.54 280zM1177.83 -40L1212.47 -20L1212.47 20L1177.83 40L1143.19 20L1143.19 -20zM1212.47 20L1247.11 40L1247.11 80L1212.47 100L1177.83 80L1177.83 40zM1177.83 80L1212.47 100L1212.47 140L1177.83 160L1143.19 140L1143.19 100zM1212.47 140L1247.11 160L1247.11 200L1212.47 220L1177.83 200L1177.83 160zM1177.83 200L1212.47 220L1212.47 260L1177.83 280L1143.19 260L1143.19 220zM1212.47 260L1247.11 280L1247.11 320L1212.47 340L1177.83 320L1177.83 280zM1247.11 -40L1281.75 -20L1281.75 20L1247.11 40L1212.47 20L1212.47 -20zM1281.75 20L1316.4 40L1316.4 80L1281.75 100L1247.11 80L1247.11 40zM1247.11 80L1281.75 100L1281.75 140L1247.11 160L1212.47 140L1212.47 100zM1281.75 140L1316.4 160L1316.4 200L1281.75 220L1247.11 200L1247.11 160zM1247.11 200L1281.75 220L1281.75 260L1247.11 280L1212.47 260L1212.47 220zM1281.75 260L1316.4 280L1316.4 320L1281.75 340L1247.11 320L1247.11 280zM1316.4 -40L1351.04 -20L1351.04 20L1316.4 40L1281.75 20L1281.75 -20zM1351.04 20L1385.68 40L1385.68 80L1351.04 100L1316.4 80L1316.4 40zM1316.4 80L1351.04 100L1351.04 140L1316.4 160L1281.75 140L1281.75 100zM1351.04 140L1385.68 160L1385.68 200L1351.04 220L1316.4 200L1316.4 160zM1316.4 200L1351.04 220L1351.04 260L1316.4 280L1281.75 260L1281.75 220zM1351.04 260L1385.68 280L1385.68 320L1351.04 340L1316.4 320L1316.4 280zM1385.68 -40L1420.32 -20L1420.32 20L1385.68 40L1351.04 20L1351.04 -20zM1420.32 20L1454.96 40L1454.96 80L1420.32 100L1385.68 80L1385.68 40zM1385.68 80L1420.32 100L1420.32 140L1385.68 160L1351.04 140L1351.04 100zM1420.32 140L1454.96 160L1454.96 200L1420.32 220L1385.68 200L1385.68 160zM1385.68 200L1420.32 220L1420.32 260L1385.68 280L1351.04 260L1351.04 220zM1420.32 260L1454.96 280L1454.96 320L1420.32 340L1385.68 320L1385.68 280z" stroke="rgba(0, 254, 251, 1)" stroke-width="2"></path>
    </g>
    <defs>
        <mask id="SvgjsMask1109">
            <rect width="1440" height="300" fill="#ffffff"></rect>
        </mask>
    </defs>
</svg>